[img]http://img717.imageshack.us/img717/3537/28132510150235505207734.jpg[/img]

The Lord Of The Rings-Extended-Trilogy BRRip 720p (6CH) [Hindi] !TAIMOOR!

[img]http://img339.imageshack.us/img339/2770/lordoftheringtendededit.jpg[/img]

[img]http://img690.imageshack.us/img690/2252/alllotrcast.jpg[/img]

The Fellowship of the Ring (2001) Extended BRRip 720p (6CH) [Hindi] !Taimoor!

[img]http://img441.imageshack.us/img441/6459/thelordoftheringsthefelg.jpg[/img]



  [img]http://img684.imageshack.us/img684/5769/plotjq.png[/img]



Release: The Fellowship of the Ring (2001) Extended BRRip 720p (6CH) [Hindi] !Taimoor!

Release Date: 19 December 2001 (USA)

Format: Matroska

Format version: Version 2

File size: 1.55 GiB

Overall bit rate: 972 Kbps
  
Release Length: 3h 48mn (Special Extended Blu-Ray Edition)

Tagline: A Fellowship Will Protect Him


Storyline
An ancient Ring thought lost for centuries has been found, and through a strange twist in 
fate has been given to a small Hobbit named Frodo. When Gandalf discovers the Ring is in 
fact the One Ring of the Dark Lord Sauron, Frodo must make an epic quest to the Cracks of 
Doom in order to destroy it! However he does not go alone. He is joined by Gandalf, Legolas 
the elf, Gimli the Dwarf, Aragorn, Boromir and his three Hobbit friends Merry, Pippin and 
Samwise. Through mountains, snow, darkness, forests, rivers and plains, facing evil and 
danger at every corner the Fellowship of the Ring must go. Their quest to destroy the One 
Ring is the only hope for the end of the Dark Lords reign!



  [img]http://img834.imageshack.us/img834/8189/casth.png[/img]



Alan Howard...................: The Ring (VOICE)

Elijah Wood...................: Frodo Baggins (VOICE)

Noel Appleby..................: Everard Proudfoot (VOICE)

Sean Astin....................: Samwise 'Sam' Gamgee (VOICE)

Sala Baker....................: Sauron (VOICE)

Sean Bean.....................: Boromir (VOICE)

Cate Blanchett................: Galadriel (VOICE)

Orlando Bloom.................: Legolas Greenleaf (VOICE)

Billy Boyd....................: Peregrin 'Pippin' Took (VOICE)

Marton Csokas.................: Celeborn (VOICE)

Megan Edwards.................: Mrs. Proudfoot (VOICE)

Michael Elsworth..............: Gondorian Archivist (VOICE)

Mark Ferguson.................: Gil-Galad (VOICE)

Ian Holm......................: Bilbo Baggins (VOICE)

Christopher Lee...............: Saruman (VOICE)



  [img]http://img821.imageshack.us/img821/3632/55622935752358453221.gif[/img]

Budget: $93,000,000 (estimated)
Opening Weekend: $66,114,741 (USA) (23 December 2001) (3359 Screens)
Gross: $870,761,744 (Worldwide) (2002)



  [img]http://img339.imageshack.us/img339/4868/zvbzx21.png[/img]



Title............................: The Fellowship of the Ring [2001] Extended -720p 6CH [Hindi] !Taimoor!
Genre............................: Action | Adventure | Drama | Fantasy
Plot Keys Word...................: Ring | Hobbit | Doom | Middle Earth | Quest  |
Official Sites...................: http://www.lordoftherings.net/
WiKiPeDiA........................: http://en.wikipedia.org/wiki/The_Lord_of_the_Rings:_The_Fellowship_of_the_Ring
Directer.........................: Peter Jackson
Writer...........................: J.R.R. Tolkien (novel), Fran Walsh (screenplay),
IMDB.............................: http://www.imdb.com/title/tt0120737/
year.............................: 19 December 2001 (USA)
User Rating......................: 8.8/10 (213,128 votes) 4,837 reviews | Critics: 235 reviews Metascore: 92/100  
VIDEO Source.....................: 1080p BluRay x264 CHDbits
File size........................: 1.55 GiB
Run time.........................: 3h 48mn (Special Extended Blu-Ray Edition)
Languages........................: Hindi
Subtittle........................: English
Ripper...........................: RIPPER~!Taimoor!
Group releases...................: [MEGUIL & HD-KING]



  [img]http://img41.imageshack.us/img41/241/windowsmediaplayerfile.png[/img]



Video

ID                               : 1
Format                           : AVC
Format/Info                      : Advanced Video Codec
Format profile                   : Main@L4.1
Format settings, CABAC           : Yes
Format settings, ReFrames        : 8 frames
Muxing mode                      : Header stripping
Codec ID                         : V_MPEG4/ISO/AVC
Duration                         : 3h 48mn
Bit rate                         : 504 Kbps
Nominal bit rate                 : 580 Kbps
Width                            : 1 280 pixels
Height                           : 534 pixels
Display aspect ratio             : 2.40:1
Frame rate                       : 23.976 fps
Color space                      : YUV
Chroma subsampling               : 4:2:0
Bit depth                        : 8 bits
Scan type                        : Progressive
Bits/(Pixel*Frame)               : 0.031
Stream size                      : 823 MiB (52%)
Title                            : RIPPER~!Taimoor!
Writing library                  : x264 core 114 r1913 5fd3dce
Encoding settings                : cabac=1 / ref=8 / deblock=1:1:-3 /




  [img]http://img13.imageshack.us/img13/5307/2l3ravv.png[/img]


Audio 

ID                               : 2
Format                           : AC-3
Format/Info                      : Audio Coding 3
Mode extension                   : CM (complete main)
Muxing mode                      : Header stripping
Codec ID                         : A_AC3
Duration                         : 3h 48mn
Bit rate mode                    : Constant
Bit rate                         : 448 Kbps
Channel(s)                       : 6 channels
Channel positions                : Front: L C R, Side: L R, LFE
Sampling rate                    : 48.0 KHz
Bit depth                        : 16 bits
Compression mode                 : Lossy
Stream size                      : 731 MiB (46%)
Title                            : RIPPER~ !Taimoor!
Language                         : Hindi



 
  [img]http://img842.imageshack.us/img842/7996/ogtw21.gif[/img]

[img]http://img7.imageshack.us/img7/4749/lotr1a.jpg[/img]
[img]http://img600.imageshack.us/img600/3676/lotr1b.jpg[/img]
[img]http://img15.imageshack.us/img15/497/lotr1c.jpg[/img]
[img]http://img838.imageshack.us/img838/7542/lotr1d.jpg[/img]
[img]http://img148.imageshack.us/img148/650/lotr1e.jpg[/img]




The Two Towers (2002) Extended BRRip 720p (6CH) [HINDI] !TAIMOOR!


[img]http://img231.imageshack.us/img231/9896/6380.jpg[/img]



  [img]http://img684.imageshack.us/img684/5769/plotjq.png[/img]



Release : The Two Towers (2002) Extended BRRip 720p (6CH) [HINDI] !TAIMOOR!

Release Date: 18 December 2002 (USA)

Format: Matroska

Format version: Version 2

File size: 1.64 GiB

Overall bit rate: 1021 Kbps  

Release Length: 3h 50mn (Special Extended Blu-Ray Edition)

Tagline: The power of darkness grows...


Storyline
Sauron's forces increase. His allies grow. The Ringwraiths return in an even more frightening 
form. Saruman's army of Uruk Hai is ready to launch an assault against Aragorn and the 
people of Rohan. Yet, the Fellowship is broken and Boromir is dead. For the little hope that is 
left, Frodo and Sam march on into Mordor, unprotected. A number of new allies join with 
Aragorn, Gimli, Legolas, Pippin and Merry. And they must defend Rohan and attack Isengard. 
Yet, while all this is going on, Sauron's troops mass toward the City of Gondor, for the War



  [img]http://img339.imageshack.us/img339/4868/zvbzx21.png[/img]



Bruce Allpress...................: Aldor (VOICE)

Sean Astin.......................: Samwise 'Sam' Gamgee (VOICE)

John Bach........................: Madril (VOICE)

Sala Baker.......................: Man Flesh Uruk (VOICE)

Cate Blanchett...................: Galadriel (VOICE)

Orlando Bloom....................: Legolas Greenleaf (VOICE)

Billy Boyd.......................: Peregrin 'Pippin' Took (VOICE)

Jed Brophy.......................: Sharku / Snaga (VOICE)

Sam Comery.......................: Éothain (VOICE)

Brad Dourif......................: Grima Wormtongue (VOICE)

Calum Gittins....................: Haleth (VOICE)

Bernard Hill.....................: Theoden (VOICE)

Bruce Hopkins....................: Gamling (VOICE)

Paris Howe Strewe................: Théodred - Prince of Rohan (VOICE)

Christopher Lee..................: Saruman the White (VOICE)


  
  [img]http://img821.imageshack.us/img821/3632/55622935752358453221.gif[/img]

Budget: $94,000,000 (estimated)
Opening Weekend: €1,403,000 (Netherlands) (21 December 2002) (148 Screens)
Gross: $920,400,000 (Worldwide) (8 November 2003)



  [img]http://img339.imageshack.us/img339/4868/zvbzx21.png[/img]



Title............................: The Two Towers (2002) Extended BRRip 720p (6CH) [HINDI] !TAIMOOR!
Genre............................: Action | Adventure | Drama | Fantasy
Plot Keys Word...................: Ring | Army | Mission | Hope | Tower 
Official Sites...................: http://www.lordoftherings.net/
WiKiPeDiA........................: http://en.wikipedia.org/wiki/The_Lord_of_the_Rings:_The_Two_Towers
Directer.........................: Peter Jackson
Writer...........................: J.R.R. Tolkien (novel), Fran Walsh (screenplay),
IMDB.............................: http://www.imdb.com/title/tt0167261/
year.............................: 18 December 2002 (USA)
User Rating......................: 8.7/10 ( 399,123 votes)  2,335 reviews | Critics: 241 reviews Metascore: 88/100  
VIDEO Source.....................: 1080p BluRay x264 CHDbits
File size........................: 1.64 GiB
Run time.........................: 3h 50mn (Special Extended Blu-Ray Edition)
Languages........................: Hindi
Subtittle........................: English
Ripper...........................: RIPPER~!TAIMOOR!
Group releases...................: [MEGUIL & HD-KING]




  [img]http://img41.imageshack.us/img41/241/windowsmediaplayerfile.png[/img]



Video
ID                               : 1
Format                           : AVC
Format/Info                      : Advanced Video Codec
Format profile                   : Main@L4.1
Format settings, CABAC           : Yes
Format settings, ReFrames        : 8 frames
Muxing mode                      : Header stripping
Codec ID                         : V_MPEG4/ISO/AVC
Duration                         : 3h 50mn
Bit rate                         : 552 Kbps
Nominal bit rate                 : 598 Kbps
Width                            : 1 280 pixels
Height                           : 536 pixels
Display aspect ratio             : 2.40:1
Frame rate                       : 23.976 fps
Color space                      : YUV
Chroma subsampling               : 4:2:0
Bit depth                        : 8 bits
Scan type                        : Progressive
Bits/(Pixel*Frame)               : 0.034
Stream size                      : 909 MiB (54%)
Title                            : RIPPER~!TAIMOOR!
Writing library                  : x264 core 114 r1913 5fd3dce
Encoding settings                : cabac=1 / ref=8 / deblock=1:1:-3 / 




  [img]http://img13.imageshack.us/img13/5307/2l3ravv.png[/img]



Audio
ID                               : 2
Format                           : AC-3
Format/Info                      : Audio Coding 3
Mode extension                   : CM (complete main)
Muxing mode                      : Header stripping
Codec ID                         : A_AC3
Duration                         : 3h 50mn
Bit rate mode                    : Constant
Bit rate                         : 448 Kbps
Channel(s)                       : 6 channels
Channel positions                : Front: L C R, Side: L R, LFE
Sampling rate                    : 48.0 KHz
Bit depth                        : 16 bits
Compression mode                 : Lossy
Stream size                      : 738 MiB (44%)
Title                            : RIPPER~!TAIMOOR!
Language                         : Hindi





  [img]http://img842.imageshack.us/img842/7996/ogtw21.gif[/img]



[img]http://img842.imageshack.us/img842/1761/lotr2a.jpg[/img]
[img]http://img190.imageshack.us/img190/3132/lotr2b.jpg[/img]
[img]http://img600.imageshack.us/img600/4806/lotr2c.jpg[/img]
[img]http://img217.imageshack.us/img217/7554/lotr2d.jpg[/img]
[img]http://img153.imageshack.us/img153/2999/lotr2e.jpg[/img]




The Return of the King (2003) Extended BRRip 720p (6CH) [HINDI] !TAIMOOR!


[img]http://img443.imageshack.us/img443/5562/thelordoftheringstheretjx.jpg[/img]




  [img]http://img684.imageshack.us/img684/5769/plotjq.png[/img]




Release: The Return of the King (2003) Extended BRRip 720p (6CH) [HINDI] !TAIMOOR!

Release Date: 19 December 2001 (USA)

Format: Matroska

Format version: Version 2

File size: 1.76 GiB

Overall bit rate: 1014 Kbps
  
Release Length: 4h 08mn (Special Extended Blu-Ray Edition)

Tagline: There can be no triumph without loss.


Storyline
While Frodo & Sam continue to approach Mount Doom to destroy the One Ring, unaware of 
the path Gollum is leading them, the former Fellowship aid Rohan & Gondor in a great battle 
in the Pelennor Fields, Minas Tirith and the Black Gates as Sauron wages his last war against


  [img]http://img834.imageshack.us/img834/8189/casth.png[/img]



Noel Appleby...................: Everard Proudfoot (VOICE)

Alexandra Astin................: Elanor Gamgee (VOICE)

Sean Astin.....................: Sam (VOICE)

David Aston....................: Gondorian Soldier 3 (VOICE)

John Bach......................: Madril (VOICE)

Sean Bean......................: Boromir (VOICE)

Cate Blanchett.................: Galadriel (VOICE)

Orlando Bloom..................: Legolas (VOICE)

Billy Boyd.....................: Pippin (VOICE)

Sadwyn Brophy..................: Eldarion (VOICE)

Alistair Browning..............: Damrod (VOICE)

Marton Csokas..................: Celeborn (VOICE)

Richard Edge...................: Gondorian Soldier 1 (VOICE)

Jason Fitch....................: Uruk 2 (VOICE)

Bernard Hill...................: Theoden (VOICE)



  [img]http://img821.imageshack.us/img821/3632/55622935752358453221.gif[/img]

Budget: $94,000,000 (estimated)
Opening Weekend: $72,629,713 (USA) (19 December 2003) (3703 Screens)
Gross: $1,118,888,979 (Worldwide) (2004)




  [img]http://img339.imageshack.us/img339/4868/zvbzx21.png[/img]




Title............................: The Return of the King (2003) Extended BRRip 720p (6CH) [HINDI] !TAIMOOR!
Genre............................: Action | Adventure | Drama | Fantasy
Plot Keys Word...................: Ring | Battle | Middle Earth | King | Eye  | 
Official Sites...................: http://www.lordoftherings.net/
WiKiPeDiA........................: http://en.wikipedia.org/wiki/The_Lord_of_the_Rings:_The_Return_of_the_King
Directer.........................: Peter Jackson
Writer...........................: J.R.R. Tolkien (novel), Fran Walsh (screenplay),
IMDB.............................: http://www.imdb.com/title/tt0167260/
year.............................: 17 December 2003 (USA)
User Rating......................: 8.8/10 (446,984 votes) 2,938 reviews | Critics: 269 reviews Metascore: 94/100  
VIDEO Source.....................: 1080p BluRay x264 CHDbits
File size........................: 1.76 GiB
Run time.........................: 4h 08mn (Special Extended Blu-Ray Edition)
Languages........................: Hindi
Subtittle........................: English
Ripper...........................: !TAIMOOR!
Group releases...................: [MEGUIL & HD-KING]



  [img]http://img41.imageshack.us/img41/241/windowsmediaplayerfile.png[/img]



Video
ID                               : 1
Format                           : AVC
Format/Info                      : Advanced Video Codec
Format profile                   : Main@L4.1
Format settings, CABAC           : Yes
Format settings, ReFrames        : 8 frames
Muxing mode                      : Header stripping
Codec ID                         : V_MPEG4/ISO/AVC
Duration                         : 4h 8mn
Bit rate                         : 546 Kbps
Nominal bit rate                 : 580 Kbps
Width                            : 1 280 pixels
Height                           : 532 pixels
Display aspect ratio             : 2.40:1
Frame rate                       : 23.976 fps
Color space                      : YUV
Chroma subsampling               : 4:2:0
Bit depth                        : 8 bits
Scan type                        : Progressive
Bits/(Pixel*Frame)               : 0.033
Stream size                      : 969 MiB (54%)
Title                            : RIPPER~!TAIMOOR!
Writing library                  : x264 core 114 r1913 5fd3dce
Encoding settings                : cabac=1 / ref=8 / deblock=1:1:-3 /


  
  [img]http://img13.imageshack.us/img13/5307/2l3ravv.png[/img]



Audio #1
ID                               : 2
Format                           : AC-3
Format/Info                      : Audio Coding 3
Mode extension                   : CM (complete main)
Muxing mode                      : Header stripping
Codec ID                         : A_AC3
Duration                         : 4h 8mn
Bit rate mode                    : Constant
Bit rate                         : 448 Kbps
Channel(s)                       : 6 channels
Channel positions                : Front: L C R, Side: L R, LFE
Sampling rate                    : 48.0 KHz
Bit depth                        : 16 bits
Compression mode                 : Lossy
Stream size                      : 796 MiB (44%)
Title                            : RIPPER~!TAIMOOR!
Language                         : Hindi




  [img]http://img842.imageshack.us/img842/7996/ogtw21.gif[/img]


[img]http://img607.imageshack.us/img607/8719/lotr3a.jpg[/img]
[img]http://img46.imageshack.us/img46/367/lotr3b.jpg[/img]
[img]http://img818.imageshack.us/img818/6771/lotr3c.jpg[/img]
[img]http://img577.imageshack.us/img577/7691/lotr3d.jpg[/img]
[img]http://img820.imageshack.us/img820/7752/lotr3e.jpg[/img]



SAMPLE !!! The Fellowship of the Ring (2001) Extended BRRip 720p (6CH) [Hindi] !Taimoor!





SAMPLE !!! The Fellowship of the Ring [2001] Extended -720p 6CH [Hindi] !Taimoor!




SAMPLE !!! The Return of the King (2003) Extended BRRip 720p (6CH) [HINDI] !TAIMOOR!





[img]http://img375.imageshack.us/img375/7883/enjoyo.png[/img]


[img]http://img443.imageshack.us/img443/444/numberoneg.gif[/img]
[img]http://img411.imageshack.us/img411/5893/phpthumbgeneratedthumbnw.gif[/img]

[img]http://img408.imageshack.us/img408/4206/slqp2p1.gif[/img]



